<?xml version="1.0" encoding="utf-8"?>
<!-- Generator: Adobe Illustrator 18.1.1, SVG Export Plug-In . SVG Version: 6.00 Build 0)  -->
<svg version="1.0" id="Layer_1" xmlns="http://www.w3.org/2000/svg" xmlns:xlink="http://www.w3.org/1999/xlink" x="0px" y="0px"
	 viewBox="250 325 120 120" enable-background="new 250 325 120 120" xml:space="preserve">
<g>
	
	<g>
		<path fill="#ff551c" d="M289.7,432.6c-0.8,0-1.6,0.1-2.5,0.1c-10.3-0.1-15.4-7.8-16.5-9.6c-0.4,1.1-1.4,4.7,0.3,8.5
			c1.7,4.1,5.9,7.3,12.2,9.4c4,1.4,7.7,2.1,10.9,2.1c9.3,0,12.5-5.7,13.2-7.1c-0.3,0-0.8,0.1-1.4,0.1c-2.1,0-5.3-0.3-8.4-1.9
			C294.3,432.5,292.4,432.5,289.7,432.6z"/>
		<path fill="#ff551c" d="M287.1,387c1.6,0.2,3.6,0.9,5.4,1.5c1.6,0.6,3.2,1.1,4.1,1.1c0.3,0,0.5-0.1,0.6-0.2
			c1.5-1.2,8.8-15.8,4.2-32.5c-1.5-5.6-5.6-8.9-10.9-8.9c-2.6,0-5.1,0.9-6.4,2.3c-2.2,2.3-3,5.2-1.6,15.3c1.4,9.9-0.5,19.8-0.9,21.9
			c0.6-0.2,1.9-0.6,4-0.6C286.1,387,286.6,387,287.1,387z"/>
		<path fill="#ff551c" d="M321.7,386.7c0.7-2.6,1.2-4.5,0.4-6.5c-1.1-3-5.3-5.1-9.9-5.1c-0.3,0-0.7,0-1,0.1
			c-3.9,0.3-6.4,2.6-7.2,6.6c-1.1,5.6-1.5,8.4-1.6,9.1c0.7,0.1,3,0.5,5.1,1.9c5.7,3.7,5.5,10,5.5,11.1c0.3,0.1,1,0.3,1.9,0.3
			c1,0,2-0.3,2.9-0.8c2.5-1.6,2.4-3.5,2.4-6.1c0-1-0.1-2.1,0.1-3.3C320.5,390.9,321.2,388.6,321.7,386.7z"/>
		<path fill="#ff551c" d="M316.9,407c-0.3,0.6-1.4,4,1.4,7.5c1.8,2.4,5.1,4,8.1,4c1.9,0,3.6-0.6,4.7-1.8c1.2-1.4,1.7-2.8,2.4-5.1
			c0.6-2,1.5-4.4,3.1-7.9c1.3-2.7,1.4-5.4,0.2-7.9c-1.5-3.2-4.7-5.3-7-6c-0.8-0.2-1.5-0.3-2.2-0.3c-2.3,0-3.7,1.1-4,1.4
			c-0.1,0.4-0.4,2.3-0.5,3.9c-0.1,1,0.1,1.9,0.1,2.8c0.2,1.7,0.3,3.2-0.6,5.3C321.1,406.4,317.6,407,316.9,407z"/>
		<path fill="#ff551c" d="M301.5,393.8c-3-0.2-5.6-1.2-8.2-2.2c-2.8-1.1-5.5-2.1-8.7-2.1c-2.3,0-4.7,0.5-7.1,1.7
			c-3.4,1.6-6.3,5.8-7.7,11.3c-1.8,7-0.8,14.1,2.5,18.6c6.1,8.2,12.6,8.7,20,9.1l0.8,0.1c0.9,0.1,2.1,0.4,3.6,0.9
			c2.5,0.8,6.1,1.8,9.6,1.8l0,0c2.8,0,5.3-0.6,7.5-1.8c4.4-2.5,7.9-6.1,10.3-10.4c-2.3-0.3-5.4-1.2-8-4.2c-3.2-3.7-2.5-7.9-2-9.7
			c-0.5-0.1-1-0.2-1.5-0.4c-0.8,2.7-2.5,6.2-6.2,8.4c-2.3,1.4-4.9,2-7.7,2c-5,0-9.3-2.2-10.4-2.8c-5.3-3-4-5.6-4-5.8l0.1-0.2
			l0.2,0.2c0.1,0.1,6.9,5.5,13.8,5.5c3.1,0,5.9-1.1,8.2-3.3c3.1-3,4.2-7,2.9-10.6C308.2,396.3,305.1,394.1,301.5,393.8z"/>
		<path fill="#ff551c" d="M274.3,344.6c-0.2-0.4-0.8-0.7-1.3-0.7c-0.2,0-0.5,0.1-0.6,0.2c-3.9,2.1-6.2,5.8-6.4,10.3
			c-0.2,4.5,1.8,8.8,5.1,10.9c0.3,0.2,0.5,0.3,0.8,0.3c0.7,0,1.1-0.6,1.2-0.9c0.2-0.4,0.3-0.8,0.2-0.9c-2-3.4-2.4-13,0.9-18.1
			C274.5,345.3,274.5,344.9,274.3,344.6z"/>
		<path fill="#ff551c" d="M261,336c-0.3-0.6-1-1-1.8-1c-0.4,0-0.9,0.1-1.2,0.3c-6.6,3.4-10.6,9.9-11,17.7c-0.4,7.5,2.6,14.6,7.7,18
			c0.6,0.4,1.3,0.6,1.9,0.6c0.6,0,1-0.2,1.2-0.6c0.2-0.4,0.2-1-0.3-1.7c-5.1-7.9-4.8-23.5,3.2-31.8C261,337,261.2,336.5,261,336z"/>
		<path fill="#ff551c" d="M312.8,365.5c0.3,0,0.5-0.1,0.8-0.3c3.2-2.3,5-6.7,4.5-11.2c-0.4-4.4-2.9-8.1-6.9-9.9
			c-0.2-0.1-0.4-0.1-0.6-0.1c-0.5,0-1.1,0.3-1.3,0.7c-0.2,0.3-0.1,0.7,0.2,1c3.5,4.9,3.6,14.5,1.8,18c-0.1,0.2,0,0.5,0.2,0.9
			C311.6,364.9,312.1,365.5,312.8,365.5z"/>
		<path fill="#ff551c" d="M328.5,370.8c0.6,0,1.3-0.3,1.9-0.8c4.9-3.7,7.5-10.9,6.7-18.4c-0.9-7.7-5.3-14-12-17
			c-0.4-0.2-0.8-0.3-1.1-0.3c-0.9,0-1.7,0.4-1.9,1.1c-0.2,0.5-0.1,1,0.4,1.5c8.4,7.9,9.5,23.5,4.9,31.6c-0.4,0.6-0.4,1.2-0.2,1.7
			C327.6,370.6,328,370.8,328.5,370.8z"/>
	</g>
</g>
</svg>
